<svg xmlns="http://www.w3.org/2000/svg" xmlns:xlink="http://www.w3.org/1999/xlink" version="1.1" x="0px" y="0px" viewBox="0 0 96 120" enable-background="new 0 0 96 96" xml:space="preserve"><path d="M90.194,85.953L67.854,63.61c5.438-6.424,8.407-14.479,8.407-22.941c0-19.627-15.967-35.596-35.594-35.596  S5.073,21.042,5.073,40.669c0,19.627,15.968,35.595,35.595,35.595c8.461,0,16.518-2.969,22.944-8.409l22.341,22.34  c0.488,0.488,1.128,0.732,1.768,0.732s1.279-0.244,1.768-0.732l0.706-0.706C91.171,88.512,91.171,86.93,90.194,85.953z   M61.584,61.585c-5.597,5.597-13.024,8.679-20.916,8.679c-16.318,0-29.595-13.276-29.595-29.595  c0-16.319,13.276-29.596,29.595-29.596S70.262,24.35,70.262,40.669C70.263,48.56,67.181,55.988,61.584,61.585z"/><text x="0" y="111" fill="#000000" font-size="5px" font-weight="bold" font-family="'Helvetica Neue', Helvetica, Arial-Unicode, Arial, Sans-serif">Created by coffeestudio10</text><text x="0" y="116" fill="#000000" font-size="5px" font-weight="bold" font-family="'Helvetica Neue', Helvetica, Arial-Unicode, Arial, Sans-serif">from the Noun Project</text></svg>