<?xml version="1.0" encoding="UTF-8"?>
<svg width="1266px" height="399px" viewBox="0 0 1266 399" version="1.1" xmlns="http://www.w3.org/2000/svg" xmlns:xlink="http://www.w3.org/1999/xlink">
    <!-- Generator: Sketch 52.4 (67378) - http://www.bohemiancoding.com/sketch -->
    <title>Artboard@2x</title>
    <desc>Created with Sketch.</desc>
    <g id="Artboard" stroke="none" stroke-width="1" fill="none" fill-rule="evenodd">
        <polygon id="Star" fill="#D8D8D8" fill-rule="nonzero" points="189 275 103.183353 320.116481 119.572874 224.558241 50.1457486 156.883519 146.091677 142.941759 189 56 231.908323 142.941759 327.854251 156.883519 258.427126 224.558241 274.816647 320.116481"></polygon>
        <polygon id="Star" fill="#D8D8D8" fill-rule="nonzero" points="488 275 402.183353 320.116481 418.572874 224.558241 349.145749 156.883519 445.091677 142.941759 488 56 530.908323 142.941759 626.854251 156.883519 557.427126 224.558241 573.816647 320.116481"></polygon>
        <polygon id="Star" fill="#D8D8D8" fill-rule="nonzero" points="786 275 700.183353 320.116481 716.572874 224.558241 647.145749 156.883519 743.091677 142.941759 786 56 828.908323 142.941759 924.854251 156.883519 855.427126 224.558241 871.816647 320.116481"></polygon>
        <polygon id="Star" fill="#D8D8D8" fill-rule="nonzero" points="1091.14575 275 1005.3291 320.116481 1021.71862 224.558241 952.291497 156.883519 1048.23743 142.941759 1091.14575 56 1134.05407 142.941759 1230 156.883519 1160.57287 224.558241 1176.9624 320.116481"></polygon>
    </g>
</svg>