<?xml version="1.0" encoding="utf-8"?>
<!-- Generator: Adobe Illustrator 22.1.0, SVG Export Plug-In . SVG Version: 6.00 Build 0)  -->
<svg version="1.1" id="Layer_1" xmlns="http://www.w3.org/2000/svg" xmlns:xlink="http://www.w3.org/1999/xlink" x="0px" y="0px"
	 viewBox="0 0 1024 1280" style="enable-background:new 0 0 1024 1280;" xml:space="preserve">
<path d="M512,963.8c249.5,0,451.8-202.3,451.8-451.8S761.5,60.2,512,60.2C262.5,60.2,60.2,262.5,60.2,512S262.5,963.8,512,963.8z
	 M512,1024C229.2,1024,0,794.8,0,512S229.2,0,512,0s512,229.2,512,512S794.8,1024,512,1024z"/>
<path d="M292.4,495.4c-12-11.6-31-11.2-42.6,0.7c-11.3,11.7-11.3,30.2,0,41.8l163.8,163.8c11.8,11.8,30.8,11.8,42.6,0l319.1-319.1
	c11.6-12,11.2-31-0.7-42.6c-11.7-11.3-30.2-11.3-41.8,0L434.9,637.9L292.4,495.4L292.4,495.4z"/>
</svg>
